<?xml version="1.0" encoding="UTF-8" standalone="no"?>
<svg width="64px" height="64px" viewBox="0 0 64 64" version="1.1" xmlns="http://www.w3.org/2000/svg" xmlns:xlink="http://www.w3.org/1999/xlink">
    <!-- Generator: Sketch 3.6.1 (26313) - http://www.bohemiancoding.com/sketch -->
    <title>Currency Conversion</title>
    <desc>Created with Sketch.</desc>
    <defs></defs>
    <g id="Page-1" stroke="none" stroke-width="1" fill="none" fill-rule="evenodd">
        <g id="Finance" transform="translate(-524.000000, -372.000000)" fill="#4573E3">
            <g id="Currency-Conversion" transform="translate(524.000000, 372.000000)">
                <path d="M14.5,3 C8.149,3 3,8.149 3,14.5 C3,20.851 8.149,26 14.5,26 C20.851,26 26,20.851 26,14.5 C26,8.149 20.851,3 14.5,3 M14.5,4 C20.29,4 25,8.71 25,14.5 C25,20.29 20.29,25 14.5,25 C8.71,25 4,20.29 4,14.5 C4,8.71 8.71,4 14.5,4" id="Fill-1"></path>
                <path d="M14.5,20 C12.57,20 11,18.654 11,17 C11,16.724 11.224,16.5 11.5,16.5 C11.776,16.5 12,16.724 12,17 C12,18.103 13.122,19 14.5,19 C15.878,19 17,18.103 17,17 C17,15.897 15.878,15 14.5,15 C12.57,15 11,13.654 11,12 C11,10.346 12.57,9 14.5,9 C16.43,9 18,10.346 18,12 C18,12.276 17.776,12.5 17.5,12.5 C17.224,12.5 17,12.276 17,12 C17,10.897 15.878,10 14.5,10 C13.122,10 12,10.897 12,12 C12,13.103 13.122,14 14.5,14 C16.43,14 18,15.346 18,17 C18,18.654 16.43,20 14.5,20" id="Fill-3"></path>
                <path d="M14.5,21 C14.224,21 14,20.776 14,20.5 L14,8.5 C14,8.224 14.224,8 14.5,8 C14.776,8 15,8.224 15,8.5 L15,20.5 C15,20.776 14.776,21 14.5,21" id="Fill-5"></path>
                <path d="M49.4383,42.0023 C49.1573,41.9903 48.8763,42.0243 48.6063,42.1003 C48.0673,42.2513 47.5723,42.5723 47.1973,43.0383 C46.4473,43.9713 46.3353,45.3003 46.9183,46.3553 C46.9323,46.3813 46.9483,46.4073 46.9663,46.4313 C46.9763,46.4533 46.9873,46.4753 46.9993,46.4963 C47.0883,46.6403 47.1593,46.8473 47.2263,47.0003 L46.5403,47.0003 C46.2463,46.9953 46.0043,47.1843 46.0003,47.4913 C45.9963,47.7993 46.2313,47.9953 46.5253,48.0003 L46.5403,48.0003 L47.5213,48.0003 C47.6393,49.0633 47.3263,50.2173 46.5983,51.0113 C46.3873,51.2263 46.3823,51.5783 46.5873,51.7983 C46.7613,51.9843 47.0343,52.0203 47.2473,51.8853 C47.2873,51.8713 47.3253,51.8533 47.3613,51.8303 C47.8193,51.5423 48.1713,51.3493 48.4773,51.2853 C48.7843,51.2213 49.0683,51.2453 49.5323,51.4963 L49.5023,51.4763 C50.0553,51.8243 50.6753,51.9993 51.2663,52.0003 C51.8563,52.0003 52.4423,51.8323 52.8523,51.3853 C53.0553,51.1633 53.0483,50.8113 52.8353,50.5993 C52.6233,50.3863 52.2863,50.3943 52.0833,50.6163 C51.9473,50.7643 51.6533,50.8883 51.2683,50.8883 C50.8823,50.8873 50.4313,50.7643 50.0513,50.5253 C50.0413,50.5193 50.0313,50.5133 50.0203,50.5083 C49.4143,50.1803 48.8343,50.0893 48.3093,50.1883 C48.5563,49.5073 48.6583,48.7243 48.5963,48.0003 L49.7693,48.0003 C50.0633,48.0043 50.3043,47.8143 50.3083,47.5073 C50.3133,47.2003 50.0783,47.0043 49.7843,47.0003 L49.7693,47.0003 L48.3633,47.0003 C48.2463,46.6373 48.0993,46.2263 47.8953,45.8943 C47.8873,45.8823 47.8793,45.8693 47.8703,45.8573 C47.8613,45.8373 47.8513,45.8183 47.8393,45.7993 C47.4783,45.1453 47.5473,44.3313 48.0123,43.7533 C48.4763,43.1753 49.2333,42.9623 49.9123,43.2213 C50.5913,43.4793 51.0003,44.1493 51.0003,44.9043 C50.9963,45.2113 51.2063,45.4633 51.5003,45.4683 C51.7943,45.4723 51.9963,45.2273 52.0003,44.9203 L52.0003,44.9043 C52.0003,43.6853 51.3723,42.5923 50.2763,42.1763 C50.0023,42.0723 49.7193,42.0143 49.4383,42.0023" id="Fill-7"></path>
                <path d="M49.5,33 C41.492,33 35,39.492 35,47.5 C35,55.508 41.492,62 49.5,62 C57.508,62 64,55.508 64,47.5 C64,39.492 57.508,33 49.5,33 M49.5,34 C56.944,34 63,40.056 63,47.5 C63,54.944 56.944,61 49.5,61 C42.056,61 36,54.944 36,47.5 C36,40.056 42.056,34 49.5,34" id="Fill-9"></path>
                <path d="M49.5,36 C43.149,36 38,41.149 38,47.5 C38,53.851 43.149,59 49.5,59 C55.851,59 61,53.851 61,47.5 C61,41.149 55.851,36 49.5,36 M49.5,37 C55.29,37 60,41.71 60,47.5 C60,53.29 55.29,58 49.5,58 C43.71,58 39,53.29 39,47.5 C39,41.71 43.71,37 49.5,37" id="Fill-11"></path>
                <path d="M32,19 C31.744,19 31.488,18.902 31.293,18.707 C30.902,18.316 30.902,17.684 31.293,17.293 L36.293,12.293 C36.684,11.902 37.316,11.902 37.707,12.293 C38.098,12.684 38.098,13.316 37.707,13.707 L32.707,18.707 C32.512,18.902 32.256,19 32,19" id="Fill-13"></path>
                <path d="M37,24 C36.744,24 36.488,23.902 36.293,23.707 L31.293,18.707 C30.902,18.316 30.902,17.684 31.293,17.293 C31.684,16.902 32.316,16.902 32.707,17.293 L37.707,22.293 C38.098,22.684 38.098,23.316 37.707,23.707 C37.512,23.902 37.256,24 37,24" id="Fill-15"></path>
                <path d="M26.9971,52 C26.7411,52 26.4851,51.902 26.2901,51.707 C25.8991,51.316 25.8991,50.684 26.2901,50.293 L31.2901,45.293 C31.6811,44.902 32.3131,44.902 32.7041,45.293 C33.0951,45.684 33.0951,46.316 32.7041,46.707 L27.7041,51.707 C27.5091,51.902 27.2531,52 26.9971,52" id="Fill-17"></path>
                <path d="M31.9971,47 C31.7411,47 31.4851,46.902 31.2901,46.707 L26.2901,41.707 C25.8991,41.316 25.8991,40.684 26.2901,40.293 C26.6811,39.902 27.3131,39.902 27.7041,40.293 L32.7041,45.293 C33.0951,45.684 33.0951,46.316 32.7041,46.707 C32.5091,46.902 32.2531,47 31.9971,47" id="Fill-19"></path>
                <path d="M51,31 C50.447,31 50,30.553 50,30 C50,24.926 45.547,19 32.997,19 C32.444,19 31.997,18.553 31.997,18 C31.997,17.447 32.444,17 32.997,17 C47.023,17 52,24.003 52,30 C52,30.553 51.553,31 51,31" id="Fill-21"></path>
                <path d="M32,47 C17.974,47 12.997,39.997 12.997,34 C12.997,33.447 13.444,33 13.997,33 C14.55,33 14.997,33.447 14.997,34 C14.997,39.074 19.45,45 32,45 C32.553,45 33,45.447 33,46 C33,46.553 32.553,47 32,47" id="Fill-23"></path>
                <path d="M14.5,0 C6.492,0 0,6.492 0,14.5 C0,22.508 6.492,29 14.5,29 C22.508,29 29,22.508 29,14.5 C29,6.492 22.508,0 14.5,0 M14.5,1 C21.944,1 28,7.056 28,14.5 C28,21.944 21.944,28 14.5,28 C7.056,28 1,21.944 1,14.5 C1,7.056 7.056,1 14.5,1" id="Fill-25"></path>
                <path d="M14.5,29 C6.829,29 0.566,23.04 0.051,15.5 C0.028,15.832 0,16.162 0,16.5 C0,24.508 6.492,31 14.5,31 C22.508,31 29,24.508 29,16.5 C29,16.162 28.972,15.832 28.949,15.5 C28.434,23.04 22.171,29 14.5,29" id="Fill-27" fill-opacity="0.5"></path>
                <path d="M49.5,62 C41.829,62 35.566,56.04 35.051,48.5 C35.028,48.832 35,49.162 35,49.5 C35,57.508 41.492,64 49.5,64 C57.508,64 64,57.508 64,49.5 C64,49.162 63.972,48.832 63.949,48.5 C63.434,56.04 57.171,62 49.5,62" id="Fill-29" fill-opacity="0.5"></path>
            </g>
        </g>
    </g>
</svg>