<svg xmlns="http://www.w3.org/2000/svg" width="128" height="128" viewBox="0 0 128 128">
  <title>EDUCATION</title>
  <g>
    <g>
      <path d="M103.8,105.551a1.75,1.75,0,0,1-1.75-1.75V68.194a1.75,1.75,0,0,1,3.5,0V103.8A1.75,1.75,0,0,1,103.8,105.551Z" fill="#224071"/>
      <path d="M38.32,68.627V98.48c0,2.939,11.5,5.321,25.677,5.321s25.678-2.382,25.678-5.321V68.627Z" fill="#224071"/>
      <path d="M104.41,66.555l-39.8-14.879a1.754,1.754,0,0,0-1.224,0l-39.8,14.879a1.749,1.749,0,0,0,0,3.278l39.8,14.879a1.743,1.743,0,0,0,1.224,0l39.8-14.879a1.749,1.749,0,0,0,0-3.278Z" fill="#455e9f"/>
      <circle cx="63.997" cy="54.723" r="8.182" fill="#ffd92d"/>
    </g>
    <g>
      <path d="M89.678,84.917a1.75,1.75,0,0,0-1.75,1.75V87.5a1.75,1.75,0,0,0,3.5,0v-.833A1.75,1.75,0,0,0,89.678,84.917Z" fill="#001c5b"/>
      <path d="M89.678,91.5a1.75,1.75,0,0,0-1.75,1.75v5.066c-1.047,1.306-9.115,3.735-23.928,3.735s-22.881-2.429-23.928-3.735V81a1.75,1.75,0,0,0-3.5,0V98.48c0,6.873,24.62,7.071,27.428,7.071s27.428-.2,27.428-7.071V93.25A1.75,1.75,0,0,0,89.678,91.5Z" fill="#001c5b"/>
      <path d="M104.413,66.555l-26.081-9.75a1.75,1.75,0,0,0-1.226,3.278l21.7,8.111L64,81.205,29.2,68.194l6.166-2.305a1.75,1.75,0,1,0-1.226-3.278L23.586,66.555a1.75,1.75,0,0,0,0,3.278l39.8,14.879a1.743,1.743,0,0,0,1.224,0L87.928,76v5a1.75,1.75,0,0,0,3.5,0V74.688l10.623-3.971V103.8a1.75,1.75,0,0,0,3.5,0V68.194A1.749,1.749,0,0,0,104.413,66.555Z" fill="#001c5b"/>
      <path d="M40.561,63.829a1.727,1.727,0,0,0,.612-.112l.886-.331a1.75,1.75,0,1,0-1.225-3.278l-.886.331a1.75,1.75,0,0,0,.613,3.39Z" fill="#001c5b"/>
      <path d="M45.535,60.218a1.75,1.75,0,0,0,2.253,1.027L54.862,58.6a10,10,0,1,0-.769-3.449l-7.531,2.815A1.75,1.75,0,0,0,45.535,60.218ZM59.451,50.174a6.433,6.433,0,1,1,0,9.1A6.389,6.389,0,0,1,59.451,50.174Z" fill="#001c5b"/>
      <path d="M78.96,42.237a1.749,1.749,0,0,0,0-2.475,21.157,21.157,0,0,0-29.92,0,1.75,1.75,0,0,0,2.475,2.475,17.656,17.656,0,0,1,24.97,0A1.751,1.751,0,0,0,78.96,42.237Z" fill="#001c5b"/>
      <path d="M74.675,28.012a28.621,28.621,0,0,1,9.659,6.376,1.75,1.75,0,0,0,2.475-2.474,32.11,32.11,0,0,0-10.835-7.152,1.75,1.75,0,1,0-1.3,3.25Z" fill="#001c5b"/>
      <path d="M42.429,34.9a1.743,1.743,0,0,0,1.237-.513A28.57,28.57,0,0,1,64,25.966a28.967,28.967,0,0,1,5.5.525,1.75,1.75,0,0,0,.666-3.437A32.519,32.519,0,0,0,64,22.466a32.044,32.044,0,0,0-22.809,9.449A1.75,1.75,0,0,0,42.429,34.9Z" fill="#001c5b"/>
    </g>
  </g>
</svg>
