<?xml version="1.0" encoding="utf-8"?>
<!-- Generator: Adobe Illustrator 19.1.0, SVG Export Plug-In . SVG Version: 6.00 Build 0)  -->
<svg version="1.1" xmlns="http://www.w3.org/2000/svg" xmlns:xlink="http://www.w3.org/1999/xlink" x="0px" y="0px"
	 viewBox="0 0 270.6 270.6" enable-background="new 0 0 270.6 270.6" xml:space="preserve">
<g id="LOCATION">
</g>
<g id="CONTACT">
</g>
<g id="SUPPORT">
</g>
<g id="TESTIMONIALS">
	<rect fill="#5EB4E7" width="270.6" height="270.6"/>
	<g>
		<g>
			<path fill="#FFFFFF" d="M126.4,181.7c0,12.3-10,22.3-22.3,22.3c-12.3,0-22.3-10-22.3-22.3c0-12.3,10-22.3,22.3-22.3
				C116.4,159.4,126.4,169.4,126.4,181.7z"/>
			<g>
				<path fill="#282D33" d="M104.1,189.3c-5.7,0-10.4-4.7-10.4-10.4c0-5.7,4.7-10.4,10.4-10.4c5.7,0,10.4,4.7,10.4,10.4
					C114.5,184.6,109.8,189.3,104.1,189.3z M104.1,172.5c-3.5,0-6.4,2.9-6.4,6.4c0,3.5,2.9,6.4,6.4,6.4c3.5,0,6.4-2.9,6.4-6.4
					C110.5,175.4,107.6,172.5,104.1,172.5z"/>
			</g>
			<g>
				<path fill="#282D33" d="M104.1,205.2c-6,0-11.7-2.3-16.1-6.4l-0.6-0.6v-1.5c0-5.7,4.7-10.4,10.4-10.4h12.6
					c5.7,0,10.4,4.7,10.4,10.4v1.5l-0.6,0.6C115.8,202.9,110,205.2,104.1,205.2z M91.3,196.5c3.5,3.1,8,4.7,12.7,4.7
					c4.7,0,9.2-1.7,12.7-4.7c-0.1-3.4-2.9-6.2-6.4-6.2H97.8C94.3,190.2,91.5,193,91.3,196.5z"/>
			</g>
		</g>
		<g>
			<path fill="#2E95D1" d="M61.2,112.6H50.5C54.4,101.5,58,89,58,77.2H48V52.3h22.5v13.8C70.5,82.2,67.8,97.9,61.2,112.6z M97.5,106
				c-0.9,2.3-1.8,4.3-2.7,6.6H84.3c4.5-13.4,5.9-21.1,7.3-35.4h-9.8V52.3h22.5v15.2C104.3,80.6,102,93.5,97.5,106z"/>
		</g>
		<g>
			<path fill="#2E95D1" d="M199.9,119.2h10.7c-3.9,11.1-7.5,23.6-7.5,35.4h10v24.9h-22.5v-13.8C190.6,149.6,193.3,133.9,199.9,119.2
				z M163.6,125.8c0.9-2.3,1.8-4.3,2.7-6.6h10.4c-4.5,13.4-5.9,21.1-7.3,35.4h9.8v24.9h-22.5v-15.2
				C156.8,151.2,159,138.2,163.6,125.8z"/>
		</g>
		<g>
			<g>
				<rect x="81.7" y="85.7" fill="#282D33" width="45.7" height="4"/>
			</g>
			<g>
				<rect x="80.8" y="100.1" fill="#282D33" width="108.6" height="4"/>
			</g>
			<g>
				<rect x="80.8" y="114.5" fill="#282D33" width="108.6" height="4"/>
			</g>
			<g>
				<rect x="80.8" y="128.9" fill="#282D33" width="108.6" height="4"/>
			</g>
			<g>
				<rect x="80.8" y="143.3" fill="#282D33" width="70.3" height="4"/>
			</g>
		</g>
	</g>
</g>
<g id="FAQ">
</g>
<g id="OUR_TEAM">
</g>
<g id="AWARDS">
</g>
<g id="STRATEGY">
</g>
<g id="VISION">
</g>
<g id="MISSION">
</g>
<g id="SERVICES">
</g>
<g id="EVENTS">
</g>
<g id="NEWS">
</g>
<g id="PROJECTS">
</g>
<g id="GALLERY">
</g>
<g id="ABOUT_US">
</g>
</svg>
