<?xml version="1.0" encoding="utf-8"?>
<!-- Generator: Adobe Illustrator 22.0.0, SVG Export Plug-In . SVG Version: 6.00 Build 0)  -->
<svg version="1.1" id="Icon_Set" xmlns="http://www.w3.org/2000/svg" xmlns:xlink="http://www.w3.org/1999/xlink" x="0px" y="0px"
	 viewBox="0 0 64 64" style="enable-background:new 0 0 64 64;" xml:space="preserve">
<style type="text/css">
	.st0{fill:#40C4FF;}
	.st1{fill:#263238;}
	.st2{fill:#FFD740;}
	.st3{fill:#FF5252;}
	.st4{fill:#4DB6AC;}
	.st5{fill:#FFFFFF;}
	.st6{fill:#4FC3F7;}
	.st7{fill:#37474F;}
</style>
<g>
	<g>
		<path class="st1" d="M32.001,35c-3.584,0-6.5-2.916-6.5-6.5s2.916-6.5,6.5-6.5s6.5,2.916,6.5,6.5S35.585,35,32.001,35z M32.001,23
			c-3.032,0-5.5,2.467-5.5,5.5s2.468,5.5,5.5,5.5s5.5-2.467,5.5-5.5S35.033,23,32.001,23z"/>
	</g>
	<g>
		<path class="st2" d="M36.161,25.031l0.447-0.372c-1.101-1.319-2.755-2.159-4.607-2.159c-3.314,0-6,2.686-6,6h0.566
			C30.072,28.5,33.467,27.273,36.161,25.031z"/>
		<path class="st1" d="M26.567,29h-0.566c-0.276,0-0.5-0.224-0.5-0.5c0-3.584,2.916-6.5,6.5-6.5c1.932,0,3.751,0.852,4.991,2.338
			c0.085,0.102,0.126,0.233,0.114,0.366s-0.076,0.254-0.179,0.339l-0.447,0.372C33.702,27.727,30.182,29,26.567,29z M26.523,28
			h0.044c3.381,0,6.675-1.191,9.274-3.354l0,0l0.045-0.038C34.858,23.581,33.468,23,32.001,23C29.137,23,26.776,25.201,26.523,28z"
			/>
	</g>
	<g>
		<path class="st1" d="M31.996,39.468c-0.145,0-0.283-0.063-0.378-0.172l-3.004-3.463c-0.078-0.091-0.122-0.207-0.122-0.327
			l-0.001-1.82c0-0.179,0.096-0.345,0.251-0.434c0.156-0.089,0.347-0.088,0.501,0.001c1.675,0.976,3.823,0.978,5.498,0.011
			c0.154-0.089,0.346-0.089,0.5,0c0.154,0.089,0.25,0.254,0.25,0.433l0.001,1.798c0,0.12-0.043,0.236-0.121,0.327l-2.996,3.473
			C32.28,39.404,32.142,39.468,31.996,39.468C31.996,39.468,31.996,39.468,31.996,39.468z M29.492,35.318l2.503,2.885l2.497-2.894
			L34.491,34.5c-1.583,0.659-3.419,0.656-5-0.009L29.492,35.318z"/>
	</g>
	<g>
		<path class="st1" d="M22.985,39.627c-0.104,0-0.208-0.032-0.297-0.098c-0.223-0.164-0.27-0.477-0.105-0.699
			c0.53-0.717,1.188-1.275,1.957-1.659l4.231-2.114c0.204-0.102,0.451-0.053,0.602,0.12l2.628,3.026l2.614-3.034
			c0.15-0.174,0.399-0.223,0.603-0.121l4.245,2.123c0.769,0.384,1.426,0.942,1.955,1.658c0.164,0.222,0.117,0.535-0.105,0.699
			c-0.221,0.164-0.534,0.117-0.699-0.105c-0.434-0.587-0.972-1.044-1.598-1.357l-3.896-1.948l-2.737,3.177
			c-0.095,0.11-0.232,0.173-0.378,0.174h-0.001c-0.145,0-0.282-0.063-0.378-0.172l-2.753-3.17l-3.885,1.94
			c-0.626,0.312-1.164,0.77-1.6,1.359C23.289,39.557,23.138,39.627,22.985,39.627z"/>
	</g>
	<g>
		<path class="st1" d="M32,44c-0.276,0-0.5-0.224-0.5-0.5v-4.532c0-0.276,0.224-0.5,0.5-0.5s0.5,0.224,0.5,0.5V43.5
			C32.5,43.776,32.276,44,32,44z"/>
	</g>
	<g>
		<path class="st1" d="M4,32.5c-0.276,0-0.5-0.224-0.5-0.5C3.5,16.285,16.285,3.5,32,3.5c0.276,0,0.5,0.224,0.5,0.5
			S32.276,4.5,32,4.5C16.837,4.5,4.5,16.836,4.5,32C4.5,32.276,4.276,32.5,4,32.5z"/>
	</g>
	<g>
		<path class="st1" d="M35,4.5h-1c-0.276,0-0.5-0.224-0.5-0.5s0.224-0.5,0.5-0.5h1c0.276,0,0.5,0.224,0.5,0.5S35.276,4.5,35,4.5z"/>
	</g>
	<g>
		<path class="st1" d="M32,60.5c-0.276,0-0.5-0.224-0.5-0.5s0.224-0.5,0.5-0.5c15.163,0,27.5-12.336,27.5-27.5
			c0-0.276,0.224-0.5,0.5-0.5s0.5,0.224,0.5,0.5C60.5,47.715,47.715,60.5,32,60.5z"/>
	</g>
	<g>
		<path class="st1" d="M30,60.5h-1c-0.276,0-0.5-0.224-0.5-0.5s0.224-0.5,0.5-0.5h1c0.276,0,0.5,0.224,0.5,0.5S30.276,60.5,30,60.5z
			"/>
	</g>
	<g>
		<path class="st1" d="M32,51.5c-10.752,0-19.5-8.748-19.5-19.5S21.248,12.5,32,12.5S51.5,21.248,51.5,32S42.752,51.5,32,51.5z
			 M32,13.5c-10.201,0-18.5,8.299-18.5,18.5S21.799,50.5,32,50.5S50.5,42.201,50.5,32S42.201,13.5,32,13.5z M32,46
			c-7.72,0-14-6.28-14-14s6.28-14,14-14s14,6.28,14,14S39.72,46,32,46z M32,19c-7.168,0-13,5.832-13,13s5.832,13,13,13
			s13-5.832,13-13S39.168,19,32,19z"/>
	</g>
	<g>
		<path class="st1" d="M32,56.5C18.49,56.5,7.5,45.509,7.5,32S18.49,7.5,32,7.5S56.5,18.491,56.5,32S45.51,56.5,32,56.5z M32,8.5
			C19.042,8.5,8.5,19.042,8.5,32S19.042,55.5,32,55.5S55.5,44.958,55.5,32S44.958,8.5,32,8.5z M32,51.5
			c-10.752,0-19.5-8.748-19.5-19.5S21.248,12.5,32,12.5S51.5,21.248,51.5,32S42.752,51.5,32,51.5z M32,13.5
			c-10.201,0-18.5,8.299-18.5,18.5S21.799,50.5,32,50.5S50.5,42.201,50.5,32S42.201,13.5,32,13.5z"/>
	</g>
	<g>
		<path class="st1" d="M53,6.5h-4c-0.276,0-0.5-0.224-0.5-0.5s0.224-0.5,0.5-0.5h4c0.276,0,0.5,0.224,0.5,0.5S53.276,6.5,53,6.5z"/>
	</g>
	<g>
		<path class="st1" d="M51,8.5c-0.276,0-0.5-0.224-0.5-0.5V4c0-0.276,0.224-0.5,0.5-0.5s0.5,0.224,0.5,0.5v4
			C51.5,8.276,51.276,8.5,51,8.5z"/>
	</g>
	<g>
		<path class="st1" d="M60,13h-4c-0.276,0-0.5-0.224-0.5-0.5S55.724,12,56,12h4c0.276,0,0.5,0.224,0.5,0.5S60.276,13,60,13z"/>
	</g>
	<g>
		<path class="st1" d="M58,15c-0.276,0-0.5-0.224-0.5-0.5v-4c0-0.276,0.224-0.5,0.5-0.5s0.5,0.224,0.5,0.5v4
			C58.5,14.776,58.276,15,58,15z"/>
	</g>
	<g>
		<path class="st2" d="M32,13c3.496,0,6.76,0.96,9.573,2.607l2.528-4.33C40.548,9.197,36.415,8,32,8C18.745,8,8,18.745,8,32h5
			C13,21.507,21.507,13,32,13z"/>
		<path class="st1" d="M13,32.5H8c-0.276,0-0.5-0.224-0.5-0.5C7.5,18.491,18.49,7.5,32,7.5c4.343,0,8.614,1.157,12.354,3.346
			c0.237,0.14,0.318,0.445,0.179,0.684l-2.528,4.33c-0.066,0.115-0.177,0.198-0.305,0.232c-0.13,0.033-0.267,0.014-0.38-0.052
			C38.483,14.378,35.26,13.5,32,13.5c-10.201,0-18.5,8.299-18.5,18.5C13.5,32.276,13.276,32.5,13,32.5z M8.505,31.5h4.001
			c0.267-10.522,8.909-19,19.494-19c3.271,0,6.508,0.838,9.391,2.429l2.024-3.468C39.934,9.522,35.998,8.5,32,8.5
			C19.209,8.5,8.771,18.771,8.505,31.5z"/>
	</g>
	<g>
		<path class="st3" d="M44.27,37.606C42.14,42.26,37.453,45.5,32,45.5V51c7.675,0,14.271-4.56,17.269-11.111L44.27,37.606z"/>
		<path class="st1" d="M32,51.5c-0.276,0-0.5-0.224-0.5-0.5v-5.5c0-0.276,0.224-0.5,0.5-0.5c5.063,0,9.701-2.984,11.815-7.603
			c0.116-0.25,0.413-0.361,0.663-0.247l4.999,2.284c0.12,0.055,0.214,0.156,0.261,0.28c0.046,0.124,0.041,0.262-0.014,0.382
			C46.553,47.024,39.596,51.5,32,51.5z M32.5,45.991v4.502c6.844-0.187,13.074-4.196,16.101-10.359l-4.092-1.87
			C42.218,42.831,37.592,45.808,32.5,45.991z"/>
	</g>
	<g>
		<path class="st0" d="M32,51c-10.493,0-19-8.507-19-19H8c0,13.255,10.745,24,24,24c5.036,0,9.708-1.554,13.567-4.205l-2.828-4.127
			C39.683,49.767,35.987,51,32,51z"/>
		<path class="st1" d="M32,56.5C18.49,56.5,7.5,45.509,7.5,32c0-0.276,0.224-0.5,0.5-0.5h5c0.276,0,0.5,0.224,0.5,0.5
			c0,10.201,8.299,18.5,18.5,18.5c3.751,0,7.366-1.122,10.456-3.244c0.109-0.075,0.243-0.103,0.375-0.08
			c0.13,0.024,0.246,0.1,0.32,0.209l2.828,4.127c0.156,0.228,0.099,0.539-0.129,0.695C41.762,55.016,36.972,56.5,32,56.5z
			 M8.505,32.5c0.267,12.729,10.704,23,23.495,23c4.602,0,9.04-1.326,12.869-3.838l-2.263-3.303C39.442,50.416,35.786,51.5,32,51.5
			c-10.585,0-19.228-8.478-19.494-19H8.505z"/>
	</g>
</g>
</svg>
